<svg fill="none" xmlns="http://www.w3.org/2000/svg" viewBox="0 0 242 144"><g clip-path="url(#a)"><path fill="#000" d="M0 0h242v144H0z"/><circle cx="79" cy="75" r="103.5" stroke="#fff" stroke-opacity=".3"/><path d="M160.941 75c0 45.602-36.902 82.569-82.422 82.569-45.52 0-82.423-36.967-82.423-82.57C-3.904 29.398 33-7.568 78.52-7.568S160.94 29.397 160.94 75Z" stroke="#fff" stroke-opacity=".3"/><path d="M140.09 75c0 33.319-27.08 60.331-60.487 60.331-33.407 0-60.486-27.012-60.486-60.33 0-33.32 27.08-60.331 60.486-60.331 33.407 0 60.487 27.012 60.487 60.33Z" stroke="#fff" stroke-opacity=".3"/><circle cx="163" cy="75" r="103.5" stroke="#fff" stroke-opacity=".3"/><path d="M244.941 75c0 45.602-36.902 82.569-82.422 82.569-45.52 0-82.423-36.967-82.423-82.57 0-45.602 36.903-82.568 82.423-82.568S244.941 29.397 244.941 75Z" stroke="#fff" stroke-opacity=".3"/><path d="M224.09 75c0 33.319-27.08 60.331-60.487 60.331-33.407 0-60.486-27.012-60.486-60.33 0-33.32 27.079-60.331 60.486-60.331S224.09 41.682 224.09 75Z" stroke="#fff" stroke-opacity=".3"/><g filter="url(#b)"><path d="M119.25 48.01a3.5 3.5 0 0 1 3.5 0l20.749 11.98a3.5 3.5 0 0 1 1.75 3.03v23.96a3.5 3.5 0 0 1-1.75 3.03l-20.749 11.98a3.501 3.501 0 0 1-3.5 0L98.501 90.01a3.5 3.5 0 0 1-1.75-3.03V63.02a3.5 3.5 0 0 1 1.75-3.03l20.749-11.98Z" fill="#F7F7F6"/><path d="M119.25 48.01a3.5 3.5 0 0 1 3.5 0l20.749 11.98a3.5 3.5 0 0 1 1.75 3.03v23.96a3.5 3.5 0 0 1-1.75 3.03l-20.749 11.98a3.501 3.501 0 0 1-3.5 0L98.501 90.01a3.5 3.5 0 0 1-1.75-3.03V63.02a3.5 3.5 0 0 1 1.75-3.03l20.749-11.98Z" stroke="#fff" stroke-width="1.75"/></g><path d="M111.307 70.175h7.437v.588h-6.755v4.427h6.352v.589h-6.352v4.86h6.833v.589h-7.515V70.175Zm8.103 0h.791l3.501 4.86 3.579-4.86L132.149 64l-7.998 11.545 4.122 5.682h-.822l-3.749-5.17-3.765 5.17h-.805l4.152-5.681-3.874-5.372Zm9.157.588v-.588h8.475v.588h-3.904v10.465h-.682V70.763h-3.889ZM102 70.175h.852l11.751 17.499-4.856-6.446-7.034-10.217-.031 10.217H102V70.175ZM136.967 80.462a.24.24 0 0 0 .243-.246.24.24 0 0 0-.243-.246.24.24 0 0 0-.244.246.24.24 0 0 0 .244.246Zm.669-.647c0 .41.297.677.73.677.461 0 .739-.276.739-.755V78.05h-.371v1.685c0 .266-.134.408-.371.408-.213 0-.357-.132-.362-.328h-.365Zm1.955-.022c.027.426.383.7.914.7.567 0 .922-.287.922-.743 0-.358-.203-.557-.693-.67l-.264-.065c-.312-.073-.438-.17-.438-.34 0-.215.196-.356.489-.356.279 0 .471.138.506.357h.362c-.022-.401-.377-.684-.863-.684-.522 0-.87.283-.87.707 0 .35.197.559.63.66l.308.074c.317.074.456.183.456.365 0 .212-.219.365-.517.365-.32 0-.542-.144-.574-.37h-.368Z" fill="#000"/></g><defs><clipPath id="a"><path fill="#fff" d="M0 0h242v144H0z"/></clipPath><filter id="b" x="60.876" y="20.416" width="120.247" height="126.667" filterUnits="userSpaceOnUse" color-interpolation-filters="sRGB"><feFlood flood-opacity="0" result="BackgroundImageFix"/><feColorMatrix in="SourceAlpha" values="0 0 0 0 0 0 0 0 0 0 0 0 0 0 0 0 0 0 127 0" result="hardAlpha"/><feOffset dy="8.75"/><feGaussianBlur stdDeviation="17.5"/><feColorMatrix values="0 0 0 0 0.105882 0 0 0 0 0.12549 0 0 0 0 0.196078 0 0 0 0.12 0"/><feBlend in2="BackgroundImageFix" result="effect1_dropShadow_1832_7684"/><feBlend in="SourceGraphic" in2="effect1_dropShadow_1832_7684" result="shape"/></filter></defs></svg>